<svg viewBox="0 0 820 820" xmlns="http://www.w3.org/2000/svg" role="img" aria-labelledby="ttl desc" font-family="Inter,Helvetica,Arial,sans-serif">
<title id="ttl">The Decision System</title>
<desc id="desc">A tool-agnostic reference architecture for a decision system. Raw data flows down through integration, warehouse, semantic layer, AI/ML/data science, and reporting surfaces to become decisions and actions. The semantic layer is the keystone. A governance, security, privacy and observability rail spans every layer including decisions. A learning loop returns outcomes as new signal, closing the system. The value transformation — data, information, insight, decision, action — runs down the left edge.</desc>
<rect width="820" height="820" fill="#FFFFFF"/>

<text x="208" y="50" font-size="15" letter-spacing="3" fill="#0EA5E9" font-weight="600">THE DECISION SYSTEM</text>
<text x="208" y="90" font-size="29" fill="#0F2A4A" font-weight="700">The tools change. <tspan fill="#0EA5E9">The architecture doesn't.</tspan></text>

<path d="M215,726 H104 Q90,726 90,712 V164 Q90,150 104,150 H203" fill="none" stroke="#0EA5E9" stroke-width="2" stroke-dasharray="5 4"/>
<path d="M203,150 l-9,-4 l0,8 z" fill="#0EA5E9"/>
<text transform="translate(72,470) rotate(-90)" font-size="11.5" letter-spacing="1.5" fill="#0EA5E9" font-weight="600" text-anchor="middle">LEARNING LOOP</text>
<text transform="translate(72,300) rotate(-90)" font-size="10.5" letter-spacing="0.5" fill="#6B7A8C" text-anchor="middle">outcomes become new signal</text>

<text x="200" y="190" font-size="12.5" letter-spacing="1.5" fill="#0EA5E9" font-weight="600" text-anchor="end">DATA</text>
<text x="200" y="352" font-size="12.5" letter-spacing="1.5" fill="#0EA5E9" font-weight="600" text-anchor="end">INFORMATION</text>
<text x="200" y="478" font-size="12.5" letter-spacing="1.5" fill="#0EA5E9" font-weight="600" text-anchor="end">INSIGHT</text>
<text x="200" y="604" font-size="12.5" letter-spacing="1.5" fill="#0EA5E9" font-weight="600" text-anchor="end">DECISION</text>
<text x="200" y="700" font-size="12.5" letter-spacing="1.5" fill="#0EA5E9" font-weight="600" text-anchor="end">ACTION</text>

<rect x="700" y="148" width="60" height="584" rx="8" fill="#F4F8FB" stroke="#0F2A4A" stroke-width="1.2" stroke-dasharray="4 3"/>
<text transform="translate(730,440) rotate(-90)" font-size="11.5" letter-spacing="1.2" fill="#0F2A4A" font-weight="600" text-anchor="middle">GOVERNANCE · SECURITY · PRIVACY · OBSERVABILITY</text>

<rect x="215" y="148" width="468" height="64" rx="8" fill="#FFFFFF" stroke="#0F2A4A" stroke-width="1.5"/>
<text x="239" y="178" font-size="21" fill="#0F2A4A" font-weight="600">Sources</text>
<text x="239" y="198" font-size="13.5" fill="#6B7A8C">CRM · SIS · EHR · surveys · public data</text>

<rect x="215" y="232" width="468" height="64" rx="8" fill="#FFFFFF" stroke="#0F2A4A" stroke-width="1.5"/>
<text x="239" y="262" font-size="21" fill="#0F2A4A" font-weight="600">Integration</text>
<text x="239" y="282" font-size="13.5" fill="#6B7A8C">Ingest · transform · load (ETL / ELT)</text>

<rect x="215" y="316" width="468" height="64" rx="8" fill="#FFFFFF" stroke="#0F2A4A" stroke-width="1.5"/>
<text x="239" y="346" font-size="21" fill="#0F2A4A" font-weight="600">Warehouse</text>
<text x="239" y="366" font-size="13.5" fill="#6B7A8C">One governed store for analytics</text>

<rect x="215" y="400" width="468" height="64" rx="8" fill="#E8F6FD" stroke="#0EA5E9" stroke-width="2.5"/>
<text x="239" y="430" font-size="21" fill="#0F2A4A" font-weight="700">Semantic Layer</text>
<text x="239" y="450" font-size="13.5" fill="#3A4A5A">One canonical definition per metric</text>
<rect x="575" y="416" width="92" height="22" rx="11" fill="#0EA5E9"/>
<text x="621" y="431" font-size="11" letter-spacing="1.2" fill="#FFFFFF" font-weight="600" text-anchor="middle">KEYSTONE</text>

<rect x="215" y="484" width="468" height="64" rx="8" fill="#FFFFFF" stroke="#0F2A4A" stroke-width="1.5"/>
<text x="239" y="514" font-size="21" fill="#0F2A4A" font-weight="600">AI · ML · Data Science</text>
<text x="239" y="534" font-size="13.5" fill="#6B7A8C">Grounded, evaluated, human-owned</text>

<rect x="215" y="568" width="468" height="64" rx="8" fill="#FFFFFF" stroke="#0F2A4A" stroke-width="1.5"/>
<text x="239" y="598" font-size="21" fill="#0F2A4A" font-weight="600">Surfaces</text>
<text x="239" y="618" font-size="13.5" fill="#6B7A8C">Report · operator console · executive view</text>

<rect x="215" y="658" width="468" height="74" rx="8" fill="#0EA5E9"/>
<text x="239" y="692" font-size="22" fill="#FFFFFF" font-weight="700">Decisions &amp; Actions</text>
<text x="239" y="714" font-size="13.5" fill="#E8F6FD">The signal becomes a choice someone owns</text>

<path d="M443,217 l6,6 l6,-6" fill="none" stroke="#0EA5E9" stroke-width="2"/>
<path d="M443,301 l6,6 l6,-6" fill="none" stroke="#0EA5E9" stroke-width="2"/>
<path d="M443,385 l6,6 l6,-6" fill="none" stroke="#0EA5E9" stroke-width="2"/>
<path d="M443,469 l6,6 l6,-6" fill="none" stroke="#0EA5E9" stroke-width="2"/>
<path d="M443,553 l6,6 l6,-6" fill="none" stroke="#0EA5E9" stroke-width="2"/>
<path d="M443,641 l6,6 l6,-6" fill="none" stroke="#0EA5E9" stroke-width="2"/>

<text x="208" y="784" font-size="13" letter-spacing="2" fill="#6B7A8C" font-weight="600">ANALYTIC BYTES</text>
<text x="360" y="784" font-size="13" fill="#0EA5E9">From fragmented to decision-ready.</text>
</svg>
