<svg viewBox="0 0 820 740" xmlns="http://www.w3.org/2000/svg" role="img" aria-labelledby="ttl desc" font-family="Inter,Helvetica,Arial,sans-serif">
<title id="ttl">Fair for Whom?</title>
<desc id="desc">A bar chart of predictive validity by demographic subgroup, ordered by training-data density. Validity is high for the majority group where data is rich and declines for smaller subgroups. A dashed aggregate line sits near the top because the majority dominates the average, hiding the disparity. An accent bracket marks the fairness gap the average conceals. The thesis: fairness is validity, asked one subgroup at a time.</desc>
<rect width="820" height="740" fill="#FFFFFF"/>

<text x="48" y="46" font-size="15" letter-spacing="3" fill="#0EA5E9" font-weight="600">FAIR FOR WHOM?</text>
<text x="48" y="80" font-size="23" fill="#0F2A4A" font-weight="700">A score can be valid on average —</text>
<text x="48" y="108" font-size="23" fill="#0EA5E9" font-weight="700">and invalid for a subgroup.</text>

<line x1="150" y1="180" x2="150" y2="500" stroke="#0F2A4A" stroke-width="1.8"/>
<line x1="150" y1="500" x2="730" y2="500" stroke="#0F2A4A" stroke-width="1.8"/>
<text transform="translate(96,340) rotate(-90)" font-size="13" fill="#0F2A4A" font-weight="600" text-anchor="middle">PREDICTIVE VALIDITY  ↑</text>

<rect x="186" y="222" width="84" height="278" fill="#0F2A4A" opacity="0.75"/>
<rect x="316" y="256" width="84" height="244" fill="#0F2A4A" opacity="0.75"/>
<rect x="446" y="330" width="84" height="170" fill="#0F2A4A" opacity="0.75"/>
<rect x="576" y="392" width="84" height="108" fill="#0F2A4A" opacity="0.75"/>

<line x1="150" y1="246" x2="700" y2="246" stroke="#0EA5E9" stroke-width="2" stroke-dasharray="6 4"/>
<text x="612" y="238" font-size="12" fill="#0EA5E9" font-weight="600">aggregate — looks fine</text>

<line x1="700" y1="246" x2="700" y2="392" stroke="#0EA5E9" stroke-width="1.5"/>
<path d="M696,246 l4,-8 l4,8 z" fill="#0EA5E9"/>
<path d="M696,392 l4,8 l4,-8 z" fill="#0EA5E9"/>
<text transform="translate(718,320) rotate(-90)" font-size="11.5" fill="#0EA5E9" font-weight="600" text-anchor="middle">the gap the average hides</text>

<text x="228" y="522" font-size="13" fill="#0F2A4A" font-weight="600" text-anchor="middle">Group A</text>
<text x="358" y="522" font-size="13" fill="#0F2A4A" font-weight="600" text-anchor="middle">Group B</text>
<text x="488" y="522" font-size="13" fill="#0F2A4A" font-weight="600" text-anchor="middle">Group C</text>
<text x="618" y="522" font-size="13" fill="#0F2A4A" font-weight="600" text-anchor="middle">Group D</text>
<text x="186" y="548" font-size="12" fill="#6B7A8C">training data: rich</text>
<text x="660" y="548" font-size="12" fill="#6B7A8C" text-anchor="end">sparse</text>
<line x1="290" y1="544" x2="600" y2="544" stroke="#CBD6E0" stroke-width="1.2"/>
<path d="M600,544 l-7,-3 l0,6 z" fill="#CBD6E0"/>

<text x="48" y="600" font-size="13" fill="#6B7A8C">Threats: differential prediction · differential item functioning (DIF) · measurement invariance</text>

<text x="48" y="640" font-size="16" fill="#0F2A4A" font-weight="700">Fairness is validity — <tspan fill="#0EA5E9">asked one subgroup at a time.</tspan></text>

<text x="48" y="700" font-size="13" letter-spacing="2" fill="#6B7A8C" font-weight="600">ANALYTIC BYTES</text>
<text x="200" y="700" font-size="13" fill="#0EA5E9">From fragmented to decision-ready.</text>
</svg>
