<svg viewBox="0 0 1200 630" xmlns="http://www.w3.org/2000/svg" role="img">
<title>Field Notes No. 05: Burden, Disparity, and the Next Dollar</title>
<desc>White background with a 2-by-2 quadrant grid in navy line work, with axis labels (burden on the x-axis, disparity on the y-axis), a few small dots distributed across the quadrants, and a cluster of dots in the upper-right quadrant (high burden, high disparity) highlighted with a teal background tint. Title and subtitle in sans-serif beneath.</desc>
<rect width="1200" height="630" fill="#FFFFFF"/>
<text x="600" y="90" font-family="-apple-system, BlinkMacSystemFont, 'Helvetica Neue', Arial, sans-serif" font-size="14" font-weight="500" letter-spacing="3.5" fill="#0EA5E9" text-anchor="middle">Field notes  ·  No. 05</text>
<g transform="translate(600, 268)">
<rect x="0" y="-110" width="180" height="110" fill="#0EA5E9" opacity="0.1"/>
<line x1="-180" y1="0" x2="180" y2="0" stroke="#0F2A4A" stroke-width="1.5"/>
<line x1="0" y1="-110" x2="0" y2="110" stroke="#0F2A4A" stroke-width="1.5"/>
<line x1="-180" y1="-110" x2="180" y2="-110" stroke="#0F2A4A" stroke-width="0.6" opacity="0.3"/>
<line x1="-180" y1="110" x2="180" y2="110" stroke="#0F2A4A" stroke-width="0.6" opacity="0.3"/>
<line x1="-180" y1="-110" x2="-180" y2="110" stroke="#0F2A4A" stroke-width="0.6" opacity="0.3"/>
<line x1="180" y1="-110" x2="180" y2="110" stroke="#0F2A4A" stroke-width="0.6" opacity="0.3"/>
<circle cx="-130" cy="60" r="4" fill="#0F2A4A" opacity="0.5"/>
<circle cx="-90" cy="80" r="4" fill="#0F2A4A" opacity="0.5"/>
<circle cx="-150" cy="30" r="4" fill="#0F2A4A" opacity="0.5"/>
<circle cx="60" cy="50" r="4" fill="#0F2A4A" opacity="0.5"/>
<circle cx="110" cy="70" r="4" fill="#0F2A4A" opacity="0.5"/>
<circle cx="-100" cy="-50" r="4" fill="#0F2A4A" opacity="0.5"/>
<circle cx="-140" cy="-80" r="4" fill="#0F2A4A" opacity="0.5"/>
<circle cx="80" cy="-60" r="6" fill="#0EA5E9"/>
<circle cx="120" cy="-80" r="6" fill="#0EA5E9"/>
<circle cx="100" cy="-40" r="6" fill="#0EA5E9"/>
<circle cx="140" cy="-50" r="6" fill="#0EA5E9"/>
<circle cx="60" cy="-90" r="6" fill="#0EA5E9"/>
<text x="190" y="4" font-family="-apple-system, BlinkMacSystemFont, 'Helvetica Neue', Arial, sans-serif" font-size="11" letter-spacing="1.5" fill="#475569">Burden &#8594;</text>
<text x="0" y="-122" font-family="-apple-system, BlinkMacSystemFont, 'Helvetica Neue', Arial, sans-serif" font-size="11" letter-spacing="1.5" fill="#475569" text-anchor="middle">&#8593; Disparity</text>
</g>
<text x="600" y="450" font-family="-apple-system, BlinkMacSystemFont, 'Helvetica Neue', Arial, sans-serif" font-size="33" font-weight="500" letter-spacing="-0.5" fill="#0F2A4A" text-anchor="middle">Burden, disparity, and the next dollar.</text>
<text x="600" y="495" font-family="-apple-system, BlinkMacSystemFont, 'Helvetica Neue', Arial, sans-serif" font-size="18" font-style="italic" fill="#475569" text-anchor="middle">A reliability-filtered framework for state-level prioritization.</text>
<line x1="570" y1="555" x2="630" y2="555" stroke="#94A3B8" stroke-width="1"/>
<text x="600" y="585" font-family="-apple-system, BlinkMacSystemFont, 'Helvetica Neue', Arial, sans-serif" font-size="13" letter-spacing="3" fill="#94A3B8" text-anchor="middle">Analytic Bytes  &#183;  2026</text>
</svg>
