<svg viewBox="0 0 1200 630" xmlns="http://www.w3.org/2000/svg" role="img">
<title>Field Note No. 01: When GenAI redesigned my dashboard</title>
<desc>White background with two side-by-side dashboard wireframes in navy line work — left side a dense complex grid representing the original dashboard, right side a simplified grid with one large headline cell representing the redesign. A short horizontal arrow between them with a small teal accent. Title and subtitle in sans-serif beneath.</desc>
<rect width="1200" height="630" fill="#FFFFFF"/>
<text x="600" y="90" font-family="-apple-system, BlinkMacSystemFont, 'Helvetica Neue', Arial, sans-serif" font-size="14" font-weight="500" letter-spacing="3.5" fill="#0EA5E9" text-anchor="middle">Field note  ·  No. 01</text>
<g transform="translate(450, 160)">
<rect x="0" y="0" width="180" height="135" fill="none" stroke="#0F2A4A" stroke-width="1.5"/>
<line x1="0" y1="22" x2="180" y2="22" stroke="#0F2A4A" stroke-width="0.8"/>
<line x1="0" y1="44" x2="180" y2="44" stroke="#0F2A4A" stroke-width="0.8"/>
<line x1="0" y1="66" x2="180" y2="66" stroke="#0F2A4A" stroke-width="0.8"/>
<line x1="0" y1="88" x2="180" y2="88" stroke="#0F2A4A" stroke-width="0.8"/>
<line x1="0" y1="110" x2="180" y2="110" stroke="#0F2A4A" stroke-width="0.8"/>
<line x1="36" y1="0" x2="36" y2="135" stroke="#0F2A4A" stroke-width="0.8"/>
<line x1="72" y1="0" x2="72" y2="135" stroke="#0F2A4A" stroke-width="0.8"/>
<line x1="108" y1="0" x2="108" y2="135" stroke="#0F2A4A" stroke-width="0.8"/>
<line x1="144" y1="0" x2="144" y2="135" stroke="#0F2A4A" stroke-width="0.8"/>
</g>
<g transform="translate(680, 175)">
<line x1="0" y1="55" x2="60" y2="55" stroke="#0F2A4A" stroke-width="1.5"/>
<polygon points="60,55 50,49 50,61" fill="#0F2A4A"/>
</g>
<g transform="translate(770, 160)">
<rect x="0" y="0" width="180" height="135" fill="none" stroke="#0F2A4A" stroke-width="1.5"/>
<rect x="14" y="14" width="152" height="58" fill="#0EA5E9" opacity="0.12"/>
<line x1="14" y1="14" x2="166" y2="14" stroke="#0EA5E9" stroke-width="1"/>
<line x1="14" y1="72" x2="166" y2="72" stroke="#0EA5E9" stroke-width="1"/>
<line x1="14" y1="14" x2="14" y2="72" stroke="#0EA5E9" stroke-width="1"/>
<line x1="166" y1="14" x2="166" y2="72" stroke="#0EA5E9" stroke-width="1"/>
<rect x="14" y="86" width="68" height="35" fill="none" stroke="#0F2A4A" stroke-width="1"/>
<rect x="98" y="86" width="68" height="35" fill="none" stroke="#0F2A4A" stroke-width="1"/>
</g>
<text x="600" y="450" font-family="-apple-system, BlinkMacSystemFont, 'Helvetica Neue', Arial, sans-serif" font-size="38" font-weight="500" letter-spacing="-0.5" fill="#0F2A4A" text-anchor="middle">When GenAI redesigned my dashboard.</text>
<text x="600" y="495" font-family="-apple-system, BlinkMacSystemFont, 'Helvetica Neue', Arial, sans-serif" font-size="18" font-style="italic" fill="#475569" text-anchor="middle">The redesign was uglier and clearer.</text>
<line x1="570" y1="555" x2="630" y2="555" stroke="#94A3B8" stroke-width="1"/>
<text x="600" y="585" font-family="-apple-system, BlinkMacSystemFont, 'Helvetica Neue', Arial, sans-serif" font-size="13" letter-spacing="3" fill="#94A3B8" text-anchor="middle">Analytic Bytes  ·  2026</text>
</svg>
