<svg viewBox="0 0 1600 840" xmlns="http://www.w3.org/2000/svg" role="img" aria-labelledby="t" font-family="Inter,Helvetica,Arial,sans-serif">
<title id="t">The evidence spine: one shared record shape for every grantee</title>
<rect width="1600" height="840" fill="#FFFFFF"/>

<text x="40" y="60" font-size="30" letter-spacing="5" fill="#0EA5E9" font-weight="700">THE EVIDENCE SPINE</text>
<text x="40" y="108" font-size="30" fill="#3A4A5A">One shared record shape for every grantee — so the whole book reads on one axis.</text>

<!-- table -->
<!-- header -->
<rect x="40"   y="160" width="220" height="72" fill="#0E2A47"/>
<rect x="262"  y="160" width="300" height="72" fill="#0E2A47"/>
<rect x="564"  y="160" width="340" height="72" fill="#0E2A47"/>
<rect x="906"  y="160" width="220" height="72" fill="#0E2A47"/>
<text x="60"  y="205" font-size="24" fill="#FFFFFF" font-weight="700">Grantee</text>
<text x="282" y="205" font-size="24" fill="#FFFFFF" font-weight="700">Outcome tier</text>
<text x="584" y="205" font-size="24" fill="#FFFFFF" font-weight="700">Leading signal</text>
<text x="926" y="205" font-size="24" fill="#FFFFFF" font-weight="700">Confidence</text>

<!-- rows -->
<g font-size="26" fill="#3A4A5A">
<rect x="40" y="232" width="1086" height="70" fill="#F4F8FB"/>
<text x="60" y="277" fill="#0E2A47" font-weight="700">Grantee 1</text><text x="282" y="277">Sustained</text><text x="584" y="277">retention up 3 terms</text><text x="926" y="277">High</text>
<rect x="40" y="302" width="1086" height="70" fill="#FFFFFF"/>
<text x="60" y="347" fill="#0E2A47" font-weight="700">Grantee 2</text><text x="282" y="347">Established</text><text x="584" y="347">gains up, reach flat</text><text x="926" y="347">Med</text>
<rect x="40" y="372" width="1086" height="70" fill="#F4F8FB"/>
<text x="60" y="417" fill="#0E2A47" font-weight="700">Grantee 3</text><text x="282" y="417">Building</text><text x="584" y="417">attendance slipping</text><text x="926" y="417">Med</text>
<rect x="40" y="442" width="1086" height="70" fill="#FFFFFF"/>
<text x="60" y="487" fill="#0E2A47" font-weight="700">Grantee 4</text><text x="282" y="487">Established</text><text x="584" y="487">unit cost falling</text><text x="926" y="487">High</text>
<rect x="40" y="512" width="1086" height="70" fill="#F4F8FB"/>
<text x="60" y="557" fill="#0E2A47" font-weight="700">Grantee 5</text><text x="282" y="557">Emerging</text><text x="584" y="557">early signal, thin data</text><text x="926" y="557">Low</text>
</g>
<rect x="40" y="160" width="1086" height="422" fill="none" stroke="#D7E3EA" stroke-width="2"/>

<!-- spine bracket highlighting shared columns -->
<rect x="262" y="150" width="864" height="442" rx="10" fill="none" stroke="#0EA5E9" stroke-width="3" stroke-dasharray="4 6"/>
<text x="694" y="140" font-size="24" letter-spacing="2" fill="#0EA5E9" font-weight="700" text-anchor="middle">THE SPINE  ·  one schema, every grantee</text>

<!-- reads across arrow -->
<path d="M1150 371 L1250 371" stroke="#0E2A47" stroke-width="4" fill="none" marker-end="url(#a)"/>
<defs><marker id="a" markerWidth="12" markerHeight="12" refX="8" refY="6" orient="auto"><path d="M0 0 L12 6 L0 12 z" fill="#0E2A47"/></marker></defs>
<text x="1270" y="345" font-size="28" fill="#0E2A47" font-weight="700">reads across</text>
<text x="1270" y="392" font-size="28" fill="#0EA5E9" font-weight="700">invest · scale · stop</text>

<text x="40" y="700" font-size="30" fill="#3A4A5A">The shared columns <tspan fill="#0E2A47" font-weight="700">are</tspan> the spine.</text>
<text x="40" y="744" font-size="30" fill="#3A4A5A">Drop them and you're back to forty custom fields that don't line up.</text>
<text x="40" y="812" font-size="22" letter-spacing="3" fill="#6B7A8C" font-weight="600">ANALYTIC BYTES</text>
</svg>
